# xmcd
#
# Track frame offsets:
#	150
#	18658
#	36650
#	53254
#	70249
#	88694
#	103667
#	119655
#	135582
#	151549
#	166946
#	183715
#	199001
#	216327
#	233224
#
# Disc length: 3257 seconds
#
# Revision: 1
# Processed by: cddbd v1.5.1PL0 Copyright (c) Steve Scherf et al.
# Submitted via: audiograbber 1.82.02
#
DISCID=d10cb70f
DTITLE=Various Artist - Nahville Sound Vol 7
DYEAR=1900
DGENRE=Karaoke
TTITLE0=Alan Jackson - Livin' on love
TTITLE1=Pam Tillis - Blue rose is
TTITLE2=Hal Ketchum - That's what I get ( for losing you ) 
TTITLE3=Doug Supernaw - Red and Rio Grande
TTITLE4=Little Texas - Kick a little
TTITLE5=Tanya Tucker - Without you what do I do with me
TTITLE6=Alabama - We can't love like this anymore
TTITLE7=Alan Jackson - I'd love you all over again
TTITLE8=George Strait - Overnight success
TTITLE9=Faith Hill - Take me as I am
TTITLE10=Radney Foster - Labor of love
TTITLE11=Sammy Kershaw - National working woman's holiday
TTITLE12=Carlene Carter - Something already gone
TTITLE13=Mark Collie - It is no secret
TTITLE14=Clay Walker - If I could make a living ( out of lovin' you )
EXTD=
EXTT0=
EXTT1=
EXTT2=
EXTT3=
EXTT4=
EXTT5=
EXTT6=
EXTT7=
EXTT8=
EXTT9=
EXTT10=
EXTT11=
EXTT12=
EXTT13=
EXTT14=
PLAYORDER=
